<svg width="14" height="14" viewBox="0 0 14 14" fill="none" xmlns="http://www.w3.org/2000/svg">
<path d="M0.624576 5.09767L3.74137 4.43806C3.95722 4.39238 4.14444 4.25337 4.25665 4.05547L6.33007 0.398784C6.63156 -0.132928 7.36844 -0.132928 7.66993 0.398784L9.74335 4.05547C9.85556 4.25337 10.0428 4.39238 10.2586 4.43806L13.3754 5.09767C13.9817 5.22598 14.2094 6.00576 13.7749 6.46554L11.1823 9.20902C11.0012 9.40063 10.9227 9.67341 10.9726 9.93751L11.5567 13.0277C11.6823 13.6925 11.0198 14.2166 10.441 13.9104L7.35188 12.276C7.13068 12.159 6.86932 12.159 6.64812 12.276L3.55904 13.9104C2.98022 14.2166 2.3177 13.6925 2.44334 13.0277L3.02741 9.93751C3.07733 9.67341 2.99882 9.40063 2.81775 9.20902L0.225061 6.46554C-0.209446 6.00576 0.0183049 5.22598 0.624576 5.09767Z" fill="#FFB800"/>
</svg>
